<?xml version="1.0" standalone="no"?>
<!DOCTYPE svg PUBLIC "-//W3C//DTD SVG 20010904//EN"
 "http://www.w3.org/TR/2001/REC-SVG-20010904/DTD/svg10.dtd">
<svg version="1.0" xmlns="http://www.w3.org/2000/svg"
 width="1024.000000pt" height="1024.000000pt" viewBox="0 0 1024.000000 1024.000000"
 preserveAspectRatio="xMidYMid meet">

<g transform="translate(0.000000,1024.000000) scale(0.100000,-0.100000)"
fill="#000000" stroke="none">
<path d="M5022 7371 c-23 -11 -138 -94 -255 -184 -210 -162 -669 -514 -1252
-960 -339 -260 -377 -293 -411 -360 l-24 -47 -1 -1333 c0 -1471 -3 -1383 64
-1483 58 -88 186 -146 362 -164 67 -7 625 -10 1700 -8 l1600 3 67 23 c117 39
205 122 252 235 l21 52 3 1315 c2 987 0 1326 -9 1358 -7 24 -24 60 -40 81 -16
23 -230 195 -511 412 -266 205 -669 517 -896 693 -227 177 -433 334 -458 351
-61 39 -148 45 -212 16z m169 -418 c73 -49 141 -101 669 -507 250 -192 554
-426 675 -519 121 -92 232 -183 248 -200 l27 -31 0 -1242 0 -1243 -26 -20
c-26 -21 -33 -21 -772 -21 l-744 0 7 28 c4 15 9 116 12 225 l5 197 64 0 c81 0
127 18 142 56 6 16 12 83 14 150 4 137 6 139 108 265 189 230 229 536 104 795
-53 109 -196 255 -303 309 -149 74 -294 92 -450 55 -134 -32 -224 -86 -328
-193 -141 -147 -192 -264 -200 -462 -8 -204 34 -332 162 -490 98 -121 112
-157 120 -300 3 -66 9 -128 11 -138 9 -30 58 -48 116 -41 29 3 64 1 78 -4 l25
-10 -1 -168 c0 -143 -3 -175 -19 -208 -33 -68 -5 -66 -773 -66 -682 0 -690 0
-716 21 l-26 20 0 1242 c0 1203 1 1243 19 1273 11 17 102 94 203 171 100 77
440 335 753 574 683 520 681 519 716 519 14 0 51 -17 80 -37z m56 -1949 c113
-39 217 -131 269 -239 92 -191 57 -376 -107 -560 -39 -44 -77 -92 -84 -106
-17 -32 -55 -175 -55 -206 l0 -23 -150 0 c-112 0 -151 3 -154 13 -2 6 -10 49
-19 93 -20 109 -36 139 -123 236 -128 142 -169 261 -146 419 26 178 157 326
333 373 73 20 178 20 236 0z"/>
<path d="M5039 5904 c-23 -25 -24 -32 -27 -196 -4 -191 1 -207 63 -228 49 -16
100 -5 125 27 18 24 20 40 20 198 0 169 0 173 -25 199 -20 22 -33 26 -78 26
-45 0 -58 -4 -78 -26z"/>
<path d="M4178 5604 c-39 -17 -58 -51 -58 -108 0 -26 20 -51 138 -167 113
-113 144 -138 175 -144 27 -5 44 -3 62 9 32 21 68 92 61 120 -5 21 -200 225
-265 279 -38 31 -60 33 -113 11z"/>
<path d="M5939 5600 c-22 -13 -242 -259 -257 -287 -7 -12 -12 -35 -12 -52 0
-50 85 -102 144 -87 22 5 219 214 258 274 20 30 23 83 8 113 -22 40 -102 62
-141 39z"/>
<path d="M3805 4685 c-18 -18 -25 -35 -25 -65 0 -51 23 -106 47 -114 30 -9
386 -11 411 -2 52 18 70 138 27 181 -24 25 -25 25 -230 25 -205 0 -206 0 -230
-25z"/>
<path d="M5955 4685 c-21 -20 -25 -34 -25 -80 0 -68 29 -105 82 -105 165 -3
353 3 373 10 48 18 69 95 41 149 -24 46 -51 51 -257 51 -188 0 -190 0 -214
-25z"/>
</g>
</svg>
